<svg width="26" height="24" viewBox="0 0 26 24" fill="none" xmlns="http://www.w3.org/2000/svg">
<path fill-rule="evenodd" clip-rule="evenodd" d="M18.3466 15.4184C17.9335 16.0347 17.4716 16.5872 16.9853 17.0766C19.6503 17.8772 21.746 20.0999 22.6112 21.9897H3.38858C4.23038 20.1498 6.24295 17.9633 8.8085 17.1439C8.30066 16.6646 7.81723 16.1195 7.38364 15.5129C3.56428 16.9798 0.958893 20.5493 0.958893 23.9066C0.958893 23.9349 0.964701 23.9612 0.964701 23.9897H25.035C25.035 23.9612 25.0409 23.9349 25.0409 23.9066C25.0409 20.4719 22.3104 16.8508 18.3466 15.4184ZM8.8085 17.1439C10.1307 18.393 11.6317 19.1662 12.9589 19.1662C14.2421 19.1662 15.704 18.3654 16.9853 17.0766C17.4716 16.5872 17.9335 16.0347 18.3466 15.4184C19.4978 13.7024 20.0409 11.559 20.0409 9.3334C20.0409 4.20151 17.5839 0.0101929 12.9589 0.0101929C8.16688 0.0101929 5.99985 4.20151 5.99985 9.3334C5.99985 11.6008 6.14637 13.7816 7.38364 15.5129C7.81723 16.1195 8.30066 16.6646 8.8085 17.1439ZM7.99984 9.3334C7.99984 5.52359 9.23815 2.00999 12.9589 2.00999C16.4598 2.00999 18.0721 5.52359 18.0721 9.3334C18.0721 11.4699 17.4138 13.4213 16.3114 14.8421C15.7362 15.5844 15.0995 16.1781 14.494 16.5814C13.9315 16.9556 13.3944 17.1664 12.9589 17.1664C12.5028 17.1664 11.9403 16.9602 11.3513 16.5951C10.7138 16.2006 10.0448 15.6186 9.4354 14.89C8.245 13.4651 7.99984 11.4935 7.99984 9.3334Z" fill="#9099B7"/>
</svg>
