<svg width="12" height="8" viewBox="0 0 12 8" fill="none" xmlns="http://www.w3.org/2000/svg">
<path fill-rule="evenodd" clip-rule="evenodd" d="M6.0062 4.51519L9.32415 1.07947C9.65472 0.734064 10.1899 0.734064 10.5206 1.07947L10.8191 1.3922C11.1493 1.73761 11.1493 2.29716 10.8191 2.64279L6.91976 6.68656C6.91382 6.69362 6.91222 6.70113 6.90608 6.70728L6.60738 7.0199C6.442 7.19362 6.2242 7.27912 6.0062 7.27821C5.78916 7.27912 5.57053 7.19362 5.40515 7.0199L5.10569 6.70728C5.1003 6.70113 5.09913 6.69259 5.09284 6.68656L1.22549 2.64279C0.895126 2.29716 0.895126 1.73761 1.22549 1.3922L1.52341 1.07947C1.85418 0.734064 2.39031 0.734064 2.72066 1.07947L6.0062 4.51519Z" fill="#9099B7"/>
</svg>
