<svg width="25" height="24" viewBox="0 0 25 24" fill="none" xmlns="http://www.w3.org/2000/svg">
<path fill-rule="evenodd" clip-rule="evenodd" d="M2.02074 11.9997C2.02074 6.48604 6.50711 1.99965 12.0208 1.99965C17.5345 1.99965 22.0209 6.48604 22.0209 11.9997C22.0209 17.5133 17.5345 21.9997 12.0208 21.9997C6.50711 21.9997 2.02074 17.5133 2.02074 11.9997ZM24.0208 11.9997C24.0208 5.37266 18.6478 -0.000366211 12.0208 -0.000366211C5.39373 -0.000366211 0.020752 5.37266 0.020752 11.9997C0.020752 18.6267 5.39373 23.9997 12.0208 23.9997C18.6478 23.9997 24.0208 18.6267 24.0208 11.9997ZM14.251 8.68905L10.8152 12.0067L14.251 15.2925C14.5963 15.6229 14.5963 16.159 14.251 16.4896L13.9382 16.7876C13.5928 17.1179 13.0332 17.1179 12.6877 16.7876L8.64378 12.9203C8.64047 12.9168 8.63632 12.9148 8.63225 12.9128C8.62901 12.9113 8.62581 12.9097 8.62312 12.9075L8.31045 12.6079C8.13678 12.4424 8.05125 12.2239 8.05221 12.0067C8.05125 11.7887 8.13678 11.5712 8.31045 11.4056L8.62312 11.107C8.62638 11.1037 8.63007 11.1017 8.63388 11.0996C8.63717 11.0978 8.64055 11.096 8.64378 11.0932L12.6877 7.19404C13.0332 6.8639 13.5928 6.8639 13.9382 7.19404L14.251 7.49255C14.5963 7.82327 14.5963 8.35845 14.251 8.68905Z" fill="white"/>
</svg>
