<svg width="31" height="20" viewBox="0 0 31 20" fill="none" xmlns="http://www.w3.org/2000/svg">
<path fill-rule="evenodd" clip-rule="evenodd" d="M14.6742 3.5651C13.9188 3.10913 12.9525 2.95291 11.7797 2.95291C8.76017 2.95291 6.30115 5.0653 6.27973 8.05555L6.28165 8.09551L6.35013 9.98136L4.61178 10.1454C3.4047 10.3466 2.59216 11.367 2.59216 12.5721C2.59216 13.9363 3.65078 15.0468 5.02966 15.0468L6.61635 15.0459C6.60037 14.8902 6.59218 14.7322 6.59218 14.5721C6.59218 12.3553 8.15464 10.5271 10.2836 10.1726L10.2835 10.172C10.2816 10.1469 10.2797 10.1216 10.2797 10.0975C10.2797 7.08053 12.0817 4.64949 14.6742 3.5651ZM7.32298 17.0468H5.02966C2.5434 17.0468 0.592163 15.0428 0.592163 12.5721C0.592163 10.3552 2.15469 8.5271 4.28355 8.17259L4.28316 8.16732C4.28142 8.1438 4.27968 8.12022 4.27968 8.09746C4.27968 3.97922 7.63719 0.952881 11.7797 0.952881C13.9939 0.952881 15.7951 1.53429 16.9966 2.98942C17.254 2.96525 17.5152 2.95291 17.7797 2.95291C20.8579 2.95291 23.1567 4.04866 24.1294 7.09266C27.3852 7.15892 30.4077 9.8271 30.4077 13.0809C30.4077 16.1219 28.2231 18.6268 25.2231 18.995V19.0466H11.0297C9.46407 19.0466 8.11066 18.2521 7.32298 17.0468ZM11.0297 17.0468C11.0297 17.0468 25.1157 17.0418 25.2231 17.0243C25.9321 16.9101 28.6235 16.2646 28.6235 13.0809C28.6235 10.9129 26.1899 9.13469 24.0883 9.09257L22.6586 9.0632L22.223 7.70104C21.5278 5.52524 20.0335 4.95295 17.7797 4.95295C14.7602 4.95295 12.3012 7.06534 12.2797 10.0556L12.2817 10.0955L12.3501 11.9812L10.6118 12.1452C9.40466 12.3466 8.59218 13.367 8.59218 14.5721C8.59218 15.9364 9.6508 17.0468 11.0297 17.0468Z" fill="#9099B7"/>
</svg>
