<svg width="25" height="22" viewBox="0 0 25 22" fill="none" xmlns="http://www.w3.org/2000/svg">
<path fill-rule="evenodd" clip-rule="evenodd" d="M22.025 9.9723C22.025 6.17853 17.4459 2.97233 12.0249 2.97233C6.60407 2.97233 2.02496 6.17853 2.02496 9.9723C2.02496 12.1862 3.58259 14.3035 6.19095 15.6355L7.08944 16.1667C7.08944 16.1667 7.43742 18.0134 6.99983 18.9997C8.56091 18.2206 9.2925 16.6921 9.2925 16.6921L10.0025 16.8219C10.6803 16.9216 11.3608 16.9724 12.0249 16.9724C17.4459 16.9724 22.025 13.7663 22.025 9.9723ZM0.0249939 9.9723C0.0249939 5.00173 5.39706 0.97229 12.0249 0.97229C18.6519 0.97229 24.025 5.00173 24.025 9.9723C24.025 14.9431 18.6519 18.9723 12.0249 18.9723C11.9034 18.9723 11.791 18.9728 11.6851 18.9733C11.1002 18.9761 10.7138 18.9779 10.0796 18.8844C9.56699 19.5094 6.98972 21.5789 4.64605 21.9627C4.64708 21.9606 4.64219 21.9597 4.63436 21.9597C4.61997 21.9597 4.59491 21.9621 4.56654 21.9648C4.52947 21.9683 4.48674 21.9724 4.45467 21.9724C4.07867 21.9724 3.77499 21.6687 3.77499 21.2926C3.77499 21.1971 3.79547 21.1072 3.83067 21.0251H3.82969C4.2711 20.2643 5.02501 18.7857 5.02501 17.4411C5.02501 17.4302 5.02652 17.4213 5.02801 17.4125C5.02946 17.404 5.03089 17.3956 5.03089 17.3855C1.85895 15.7653 0.0249939 13.0681 0.0249939 9.9723ZM4.78938 10.1126C4.85874 10.1359 4.92903 10.1477 4.99839 10.1477C5.26799 10.1477 5.51987 9.97869 5.61457 9.71115C5.65268 9.60277 6.60572 7.04228 11.1272 6.138C11.4789 6.06754 11.7074 5.72476 11.6371 5.3724C11.5657 5.0197 11.225 4.80112 10.8715 4.8626C5.56287 5.92499 4.42803 9.15752 4.38318 9.29516C4.26985 9.63305 4.45148 9.9962 4.78938 10.1126Z" fill="#9099B7"/>
</svg>
