<svg width="26" height="19" viewBox="0 0 26 19" fill="none" xmlns="http://www.w3.org/2000/svg">
<path fill-rule="evenodd" clip-rule="evenodd" d="M18.5209 5.06126C17.5483 2.01727 15.2493 0.921753 12.1713 0.921753C8.02968 0.921753 4.67134 3.94798 4.67134 8.06608C4.67134 8.0804 4.67235 8.09494 4.67337 8.10963C4.6741 8.12018 4.67483 8.13079 4.6752 8.14145C2.54724 8.49597 0.983765 10.324 0.983765 12.5408C0.983765 15.0114 2.93602 17.0154 5.42132 17.0154H8.01605L6.6098 15.0154H5.42132C4.04237 15.0154 2.98373 13.905 2.98373 12.5408C2.98373 11.3356 3.79733 10.3152 5.00432 10.114L6.74165 9.94998L6.67333 8.06416L6.67133 8.02418C6.6938 5.03406 9.15281 2.92177 12.1713 2.92177C14.4252 2.92177 15.9203 3.49395 16.6157 5.66964L17.0512 7.03204L18.4799 7.06141C20.5815 7.10331 23.0161 8.88156 23.0161 11.0495C23.0161 14.7167 19.4448 15.0154 19.4448 15.0154L17.8285 17.0154H20.1098V16.9636C23.1097 16.5955 25.0473 14.0905 25.0473 11.0495C25.0473 7.79571 21.7768 5.12775 18.5209 5.06126ZM14 15.7537L16.1996 13.328C16.4789 13.036 16.9311 13.036 17.2104 13.328L17.4623 13.4042C17.7416 13.6971 17.7416 14.1697 17.4623 14.4617L13.7611 18.5164C13.7596 18.5182 13.7583 18.5201 13.7572 18.5219C13.7567 18.5227 13.7562 18.5235 13.7558 18.5243C13.7539 18.5274 13.7521 18.5303 13.7495 18.533L13.4965 18.7977C13.3579 18.9441 13.1732 19.0165 12.9897 19.0155C12.8051 19.0165 12.6216 18.9441 12.4809 18.7977L12.2279 18.533C12.2255 18.5305 12.2241 18.5276 12.2226 18.5247C12.2212 18.5218 12.2197 18.5189 12.2172 18.5164L8.60784 14.5242C8.32858 14.2323 8.32858 13.7596 8.60784 13.4667L8.85987 13.3905C9.13906 13.0985 9.5922 13.0985 9.87154 13.3905L12 15.7642V8.99985C12 8.44758 12.4477 7.99982 13 7.99982C13.5522 7.99982 14 8.44758 14 8.99985V15.7537Z" fill="#9099B7"/>
</svg>
