<svg width="25" height="23" viewBox="0 0 25 23" fill="none" xmlns="http://www.w3.org/2000/svg">
<path fill-rule="evenodd" clip-rule="evenodd" d="M9.99309 4.99986C9.99309 5.55257 9.54575 5.99987 8.99303 5.99987C8.44038 5.99987 7.99305 5.55257 7.99305 4.99986V0.999811C7.99305 0.447075 8.44038 -0.000205994 8.99303 -0.000205994C9.54575 -0.000205994 9.99309 0.447075 9.99309 0.999811V4.99986ZM17.9931 4.99986C17.9931 5.55257 17.5458 5.99987 16.9931 5.99987C16.4404 5.99987 15.9931 5.55257 15.9931 4.99986V0.999811C15.9931 0.447075 16.4404 -0.000205994 16.9931 -0.000205994C17.5458 -0.000205994 17.9931 0.447075 17.9931 0.999811V4.99986ZM6.99306 10.9998H8.99303V8.9999H6.99306V10.9998ZM13.9931 10.9998H11.9931V8.9999H13.9931V10.9998ZM16.9931 10.9998H18.9931V8.9999H16.9931V10.9998ZM8.99303 13.9999H6.99306V11.9998H8.99303V13.9999ZM11.9931 13.9999H13.9931V11.9998H11.9931V13.9999ZM18.9931 13.9999H16.9931V11.9998H18.9931V13.9999ZM6.99306 16.9999H8.99303V14.9999H6.99306V16.9999ZM13.9931 16.9999H11.9931V14.9999H13.9931V16.9999ZM16.9931 16.9999H18.9931V14.9999H16.9931V16.9999ZM21.9931 3.99984C22.5449 3.99984 22.9931 4.44815 22.9931 4.99986V19.9997C22.9931 20.5517 22.5449 20.9997 21.9931 20.9997H3.99309C3.44133 20.9997 2.99308 20.5517 2.99308 19.9997V4.99986C2.99308 4.44815 3.44133 3.99984 3.99309 3.99984H21.9931ZM21.9931 1.99983H3.99309C2.33589 1.99983 0.993111 3.34261 0.993111 4.99986V19.9997C0.993111 21.657 2.33589 22.9999 3.99309 22.9999H21.9931C23.6502 22.9999 24.993 21.657 24.993 19.9997V4.99986C24.993 3.34261 23.6502 1.99983 21.9931 1.99983Z" fill="#9099B7"/>
</svg>
