<svg width="26" height="16" viewBox="0 0 26 16" fill="none" xmlns="http://www.w3.org/2000/svg">
<path fill-rule="evenodd" clip-rule="evenodd" d="M12.9999 2.0047C16.9687 2.0047 20.8661 4.39328 22.8699 8.0016C20.8671 11.6082 16.9706 13.9948 12.9999 13.9948C9.03113 13.9948 5.13468 11.6063 3.12979 7.99784C5.13365 4.39147 9.03017 2.0047 12.9999 2.0047ZM12.9999 0.00466919C7.99402 0.00466919 3.24989 3.18232 1.06923 7.62374C1.05948 7.64241 1.0615 7.662 1.05353 7.68329C1.04871 7.69616 1.03791 7.70286 1.03308 7.71561C1.02139 7.74886 1.02622 7.78405 1.01842 7.81808C1.00471 7.87785 0.992065 7.93637 0.992065 7.99693C0.992065 8.0584 1.00471 8.11499 1.01842 8.17646C1.02622 8.2088 1.02139 8.2459 1.03308 8.27824C1.03791 8.29281 1.04871 8.29953 1.05353 8.31229C1.0615 8.33083 1.05948 8.35337 1.06923 8.37193C3.24989 12.8134 7.99402 15.9949 12.9999 15.9949C18.0058 15.9949 22.7498 12.8181 24.9306 8.37672C24.9404 8.35816 24.9384 8.33777 24.9462 8.31718C24.951 8.30545 24.9617 8.2968 24.9666 8.28393C24.9784 8.25171 24.9736 8.21574 24.9823 8.18147C24.995 8.12193 25.0076 8.06409 25.0076 8.00262C25.0076 7.94229 24.995 7.88456 24.9823 7.824C24.9736 7.79075 24.9784 7.75478 24.9666 7.72153C24.9617 7.70787 24.951 7.6999 24.9462 7.68728C24.9384 7.66872 24.9404 7.64629 24.9306 7.62773C22.7498 3.1863 18.0058 0.00466919 12.9999 0.00466919ZM12.9051 11.9949C10.699 11.9949 8.90515 10.2011 8.90515 7.99488C8.90515 5.78869 10.699 3.99483 12.9051 3.99483C15.1113 3.99483 16.9052 5.78869 16.9052 7.99488C16.9052 10.2011 15.1113 11.9949 12.9051 11.9949ZM12.9051 5.99485C11.8027 5.99485 10.9051 6.89241 10.9051 7.99488C10.9051 9.09736 11.8027 9.99491 12.9051 9.99491C14.0076 9.99491 14.9052 9.09736 14.9052 7.99488C14.9052 6.89241 14.0076 5.99485 12.9051 5.99485Z" fill="#9099B7"/>
</svg>
