<svg width="25" height="25" viewBox="0 0 25 25" fill="none" xmlns="http://www.w3.org/2000/svg">
<path fill-rule="evenodd" clip-rule="evenodd" d="M12.5004 2.74795L15.1205 8.18642L15.5805 9.14057L16.6283 9.29687L22.5834 10.1825L18.2405 14.5185L17.5111 15.2469L17.6811 16.2635L18.6957 22.3212L13.4477 19.496L12.4994 18.9852L11.5512 19.496L6.30306 22.3222L7.31779 16.2635L7.48766 15.2469L6.75821 14.5185L2.41739 10.1825L8.37246 9.29687L9.42031 9.14057L9.88031 8.18642L12.5004 2.74795ZM12.4994 0.499847C11.807 0.499847 11.1753 0.890572 10.8803 1.5018L8.07849 7.31812L1.63126 8.27717C0.96916 8.37597 0.41926 8.82795 0.205485 9.44715C-0.00741468 10.0671 0.153685 10.7499 0.62151 11.2155L5.34511 15.9333L4.24936 22.4755C4.13914 23.1347 4.42421 23.7958 4.98379 24.1814C5.29139 24.3925 5.65266 24.4998 6.01406 24.4998C6.31191 24.4998 6.60979 24.4274 6.87929 24.2831L12.4994 21.2567L18.1205 24.2831C18.391 24.4274 18.6889 24.4998 18.9857 24.4998C19.3471 24.4998 19.7084 24.3925 20.017 24.1814C20.5756 23.7958 20.8607 23.1347 20.7494 22.4755L19.6536 15.9333L24.3793 11.2155C24.8471 10.7499 25.0072 10.0671 24.7943 9.44715C24.5805 8.82795 24.0307 8.37597 23.3685 8.27717L16.9223 7.31812L14.1195 1.5018C13.8256 0.890572 13.1938 0.499847 12.4994 0.499847Z" fill="#9099B7"/>
</svg>
