<svg width="23" height="20" viewBox="0 0 23 20" fill="none" xmlns="http://www.w3.org/2000/svg">
<path fill-rule="evenodd" clip-rule="evenodd" d="M9.51888 3.00225C8.66378 2.33861 7.55976 1.96368 6.43577 1.96368C5.21072 1.96368 4.10092 2.4005 3.31119 3.19536C2.46256 4.04658 1.99481 5.1766 1.99481 6.37802C1.99481 7.5792 2.46178 8.71104 3.3103 9.56306C4.01387 10.2695 9.63058 16.5228 10.875 17.9753C10.9084 18.0002 10.948 18.0118 10.992 18.0118C11.0474 18.0118 11.0957 17.993 11.1336 17.9538C12.9915 15.9945 16.7261 11.8812 18.1278 10.3373C18.4591 9.9724 18.6601 9.75104 18.6752 9.73552C19.538 8.86906 20.005 7.73732 20.005 6.53604C20.005 5.33462 19.5372 4.20472 18.6894 3.3544C17.8601 2.52016 16.6615 2.04224 15.3987 2.04224C14.1824 2.04224 13.0471 2.46562 12.2038 3.23556L11.1463 4.20145C10.4725 4.88339 9.77384 5.68952 9.1761 6.58578C8.98368 6.87472 8.66647 7.03102 8.34316 7.03102C8.15274 7.03102 7.96032 6.97638 7.78941 6.8631C7.32948 6.5564 7.20544 5.9363 7.5121 5.47636C8.12948 4.55019 8.83213 3.7177 9.51888 3.00225ZM10.9644 1.71313C9.69403 0.59271 8.02515 0.00759888 6.37187 0.00759888C4.72638 0.00759888 3.097 0.586159 1.88869 1.7928C-0.629441 4.30354 -0.629441 8.3753 1.88869 10.8879C2.60781 11.6062 9.58399 19.3961 9.58399 19.3961C9.98161 19.7937 10.5024 19.9922 11.0231 19.9922C11.5438 19.9922 12.0644 19.7937 12.4621 19.3961C12.4621 19.3961 20.0928 11.1306 20.1736 11.0483C22.6917 8.53548 22.6917 4.46406 20.1736 1.95298C18.9248 0.705919 17.2236 0.0870589 15.5216 0.0870589C13.9852 0.0870589 12.4473 0.591112 11.2387 1.59279C11.1525 1.62022 11.061 1.65988 10.9644 1.71313Z" fill="#9099B7"/>
</svg>
