<svg width="22" height="22" viewBox="0 0 22 22" fill="none" xmlns="http://www.w3.org/2000/svg">
<g clip-path="url(#clip0_224_450)">
<path fill-rule="evenodd" clip-rule="evenodd" d="M10.9998 -0.000242C17.075 -0.000242 21.9999 4.9247 21.9999 10.9998C21.9999 17.0749 17.075 21.9998 10.9998 21.9998C4.92479 21.9998 -8.8e-05 17.0749 -8.8e-05 10.9998C-8.8e-05 4.9247 4.92479 -0.000242 10.9998 -0.000242Z" fill="#E64C65"/>
<path d="M12.128 13.832C12.128 13.48 12.0587 13.1653 11.92 12.888C11.7813 12.6107 11.536 12.376 11.184 12.184C10.8427 11.992 10.3787 11.848 9.792 11.752C9.216 11.656 8.48533 11.608 7.6 11.608C7.71733 10.584 7.808 9.61333 7.872 8.696C7.936 7.768 7.98933 6.84 8.032 5.912H13.696V7.544H9.68C9.66933 7.72533 9.65333 7.93333 9.632 8.168C9.62133 8.392 9.60533 8.62133 9.584 8.856C9.57333 9.09067 9.55733 9.31467 9.536 9.528C9.51467 9.74133 9.49333 9.92267 9.472 10.072C11.0507 10.1573 12.2133 10.52 12.96 11.16C13.7173 11.7893 14.096 12.6533 14.096 13.752C14.096 14.2533 14.0107 14.7173 13.84 15.144C13.6693 15.5707 13.408 15.9387 13.056 16.248C12.704 16.5573 12.2613 16.8027 11.728 16.984C11.1947 17.1547 10.5707 17.24 9.856 17.24C9.568 17.24 9.27467 17.2187 8.976 17.176C8.67733 17.1333 8.38933 17.08 8.112 17.016C7.84533 16.9627 7.60533 16.904 7.392 16.84C7.17867 16.776 7.01867 16.7173 6.912 16.664L7.28 15.032C7.504 15.1387 7.824 15.256 8.24 15.384C8.66667 15.5013 9.184 15.56 9.792 15.56C10.208 15.56 10.5653 15.5173 10.864 15.432C11.1627 15.336 11.4027 15.208 11.584 15.048C11.776 14.888 11.9147 14.7067 12 14.504C12.0853 14.2907 12.128 14.0667 12.128 13.832Z" fill="white"/>
</g>
<defs>
<clipPath id="clip0_224_450">
<rect width="22" height="22" fill="white"/>
</clipPath>
</defs>
</svg>
