<svg width="25" height="24" viewBox="0 0 25 24" fill="none" xmlns="http://www.w3.org/2000/svg">
<path fill-rule="evenodd" clip-rule="evenodd" d="M20.9392 4.12597L11.9496 15.5673C11.7113 15.8709 11.6812 16.5502 12.0678 16.5507C12.4768 16.5507 12.4649 16.6173 12.457 16.6615C12.4531 16.6835 12.4501 16.7 12.5004 16.7C12.7074 16.7 12.9125 16.6081 13.0513 16.4325L21.7042 5.4195L19.0219 21.5116L13.1929 19.1806L11.6117 18.5486L10.7358 20.0096L10.2759 20.7762L8.57562 17.8017L8.22992 17.1961L7.58247 16.9374L3.92032 15.4715L20.9392 4.12597ZM23.3334 0.125808C23.4595 0.0408717 23.6049 -0.000240326 23.7494 -0.000240326C23.891 -0.000240326 24.0326 0.0389277 24.1568 0.12C24.4077 0.283008 24.5386 0.577992 24.4897 0.872736L20.7397 23.3729C20.7016 23.5976 20.5649 23.7919 20.3676 23.9031C20.2533 23.9675 20.1275 23.9999 19.9994 23.9999C19.9047 23.9999 19.8109 23.9822 19.7211 23.9452L12.4506 21.038L10.893 23.6346C10.7563 23.8612 10.5121 23.9999 10.2494 23.9999H10.2416C9.976 23.9969 9.72995 23.8535 9.59807 23.622L6.83935 18.7937L0.971098 16.4451C0.712298 16.3437 0.531723 16.1043 0.504323 15.828C0.475023 15.5506 0.602023 15.2792 0.833448 15.1259L23.3334 0.125808Z" fill="#9099B7"/>
</svg>
