<svg width="20" height="25" viewBox="0 0 20 25" fill="none" xmlns="http://www.w3.org/2000/svg">
<path fill-rule="evenodd" clip-rule="evenodd" d="M10.062 2.00576C13.9077 2.00576 17.0356 5.13354 17.0356 8.97934C17.0356 13.4929 12.8042 18.6766 10.0629 21.8358C7.32371 18.6785 2.99552 13.492 2.99552 8.97934C2.99552 5.13354 6.21718 2.00576 10.062 2.00576ZM10.062 0.0057373C5.11465 0.0057373 0.995544 3.98121 0.995544 8.97934C0.995544 14.2137 5.57658 19.7233 8.84711 23.486C8.85976 23.5009 9.38516 24.0877 10.0336 24.0877C10.0356 24.0877 10.0893 24.0877 10.0913 24.0877C10.7396 24.0877 11.265 23.5009 11.2778 23.486C14.5493 19.7233 19.0356 14.2137 19.0356 8.97934C19.0356 3.98121 15.0102 0.0057373 10.062 0.0057373ZM9.98123 12.9937C7.75453 12.9937 5.9422 11.1987 5.9422 8.99356C5.9422 6.78839 7.75453 4.99351 9.98123 4.99351C12.208 4.99351 14.0203 6.78839 14.0203 8.99356C14.0203 11.1987 12.208 12.9937 9.98123 12.9937ZM9.98289 6.51676C8.60351 6.51676 7.48046 7.62914 7.48046 8.99516C7.48046 10.3612 8.60351 11.4733 9.98289 11.4733C11.3623 11.4733 12.4853 10.3612 12.4853 8.99516C12.4853 7.62914 11.3623 6.51676 9.98289 6.51676Z" fill="white"/>
</svg>
