<svg width="18" height="24" viewBox="0 0 18 24" fill="none" xmlns="http://www.w3.org/2000/svg">
<path fill-rule="evenodd" clip-rule="evenodd" d="M5.00009 8.99988V10.9999H13V8.99988H15V10.9999H16V18.9999C16 20.8663 13.9161 22 13 22H5.00009C3.09386 22 2.00005 20.9064 2.00005 18.9999V10.9999H3.00004V8.99988H5.00009ZM3.00004 8.99988H2.00005C0.895518 8.99988 0 9.89551 0 10.9999V18.9999C0 22 2.00005 24 5.00009 24H13C15 24 18 22 18 18.9999V10.9999C18 9.89551 17.1045 8.99988 16 8.99988H15V6.00007C15 2.68639 12.3135 0 9.00005 0C5.6866 0 3.00004 2.68639 3.00004 6.00007V8.99988ZM5.00009 8.99988V6.00007C5.00009 3.79387 6.7939 2.00002 9.00005 2.00002C11.2061 2.00002 13 3.79387 13 6.00007V8.99988H5.00009ZM8.99995 12.9999C10.1044 12.9999 10.9999 13.8954 10.9999 14.9999C10.9999 15.9423 9.99995 16.9999 9.99995 16.9999V19.9997H7.99996V16.9999C7.99996 16.9999 6.99997 15.9423 6.99997 14.9999C6.99997 13.8954 7.89541 12.9999 8.99995 12.9999Z" fill="#9099B7"/>
</svg>
