<svg width="25" height="18" viewBox="0 0 25 18" fill="none" xmlns="http://www.w3.org/2000/svg">
<path fill-rule="evenodd" clip-rule="evenodd" d="M21.9557 3.53125C21.7442 2.65379 20.9524 1.99958 20.0111 1.99958H4.0111C3.0699 1.99958 2.27807 2.65377 2.06655 3.53121L12.0112 10.7634L21.9557 3.53125ZM24.011 3.9711C23.9956 1.77524 22.2106 -0.000431061 20.0111 -0.000431061H4.0111C1.80211 -0.000431061 0.0111351 1.79069 0.0111351 3.99973V13.9996C0.0111351 16.2086 1.80211 17.9998 4.0111 17.9998H20.0111C22.2201 17.9998 24.0111 16.2086 24.0111 13.9996V4.02351C24.0115 4.00606 24.0115 3.98858 24.011 3.9711ZM22.0111 5.96305L12.599 12.8084C12.4243 12.9361 12.2172 12.9996 12.0112 12.9996C11.805 12.9996 11.598 12.9361 11.4232 12.8084L2.0111 5.96296V13.9996C2.0111 15.1022 2.90863 15.9997 4.0111 15.9997H20.0111C21.1136 15.9997 22.0111 15.1022 22.0111 13.9996V5.96305Z" fill="#9099B7"/>
</svg>
