<svg width="33" height="25" viewBox="0 0 33 25" fill="none" xmlns="http://www.w3.org/2000/svg">
<path fill-rule="evenodd" clip-rule="evenodd" d="M18.1294 12.0926C17.1566 9.04881 14.8578 7.95294 11.7797 7.95294C7.6372 7.95294 4.27968 10.9794 4.27968 15.0975C4.27968 15.1219 4.2817 15.1474 4.28358 15.1727C2.15471 15.5273 0.592163 17.3554 0.592163 19.5722C0.592163 22.0428 2.54342 24.0466 5.02967 24.0466H19.2231V23.9948C22.2231 23.6269 24.4077 21.1219 24.4077 18.081C24.4077 14.8271 21.3852 12.159 18.1294 12.0926ZM19.2231 22.0243C19.1157 22.0419 5.02967 22.0466 5.02967 22.0466C3.65077 22.0466 2.59216 20.9363 2.59216 19.5722C2.59216 18.367 3.40472 17.3464 4.61176 17.1452L6.35013 16.9813L6.28169 15.0956L6.27975 15.0556C6.30116 12.0652 8.76019 9.95308 11.7797 9.95308C14.0336 9.95308 15.5278 10.5251 16.2231 12.7011L16.6586 14.0633L18.0883 14.0926C20.1899 14.1347 22.6235 15.913 22.6235 18.081C22.6235 21.2645 19.932 21.91 19.2231 22.0243ZM31.0406 14.0156C30.8051 14.0156 30.0032 14.0156 29.7679 14.0156C29.0506 14.0156 28.4693 13.5506 28.4693 12.977C28.4693 12.4031 29.0506 11.9381 29.7679 11.9381C30.0032 11.9381 30.8051 11.9381 31.0406 11.9381C31.7579 11.9381 32.3391 12.4031 32.3391 12.977C32.3391 13.5506 31.7579 14.0156 31.0406 14.0156ZM28.0092 5.85249C27.5024 6.35968 26.7624 6.44176 26.3566 6.03568C25.9507 5.63006 26.033 4.89016 26.5401 4.38299C26.6802 4.24307 27.3092 3.61408 27.4492 3.47394C27.956 2.96754 28.696 2.88467 29.1018 3.29042C29.5077 3.6965 29.4255 4.43685 28.9181 4.94344C28.7787 5.08348 28.1492 5.71281 28.0092 5.85249ZM23.7478 18.1157C23.7415 17.1825 23.4744 16.4528 23.0756 15.8861C23.6553 15.0693 24.0036 14.0771 24.0036 12.9993C24.0036 10.2359 21.7634 7.99574 18.9999 7.99574C17.4291 7.99574 16.0446 8.73426 15.1272 9.86656C14.5211 9.48165 13.8562 9.21592 13.2236 9.05155C14.4847 7.2101 16.5996 5.99958 18.9999 5.99958C22.8659 5.99958 25.9999 9.13339 25.9999 12.9993C25.9999 15.0265 25.1249 16.8374 23.7478 18.1157ZM18.9941 3.9489C18.4462 3.9489 18.0018 3.36772 18.0018 2.65014C18.0018 2.41245 18.0018 1.58968 18.0018 1.35165C18.0018 0.634313 18.4462 0.0533447 18.9941 0.0533447C19.5422 0.0533447 19.9865 0.634313 19.9865 1.35165C19.9865 1.58968 19.9865 2.41245 19.9865 2.65014C19.9865 3.36772 19.5422 3.9489 18.9941 3.9489ZM10.6974 5.85249C10.5573 5.71281 9.92839 5.08324 9.78841 4.94344C9.28159 4.43615 9.19896 3.6965 9.60476 3.29042C10.0105 2.88467 10.7507 2.96709 11.2579 3.47394C11.3979 3.61408 12.0269 4.24307 12.167 4.38299C12.6737 4.89016 12.7559 5.63006 12.3501 6.03568C11.9442 6.44152 11.2047 6.35934 10.6974 5.85249ZM28.0097 20.2262C28.1496 20.3662 28.7787 20.9956 28.9186 21.1355C29.4255 21.6421 29.5077 22.3822 29.1023 22.7879C28.6964 23.1937 27.9565 23.1114 27.4497 22.6045C27.3097 22.4646 26.6802 21.8357 26.5401 21.6958C26.0334 21.1887 25.9507 20.4484 26.3566 20.0428C26.7624 19.6367 27.5029 19.7191 28.0097 20.2262Z" fill="#9099B7"/>
</svg>
