<svg width="25" height="24" viewBox="0 0 25 24" fill="none" xmlns="http://www.w3.org/2000/svg">
<path fill-rule="evenodd" clip-rule="evenodd" d="M12.0416 1.9997C17.5552 1.9997 22.0416 6.486 22.0416 11.9996C22.0416 17.5133 17.5552 21.9996 12.0416 21.9996C6.52782 21.9996 2.04153 17.5133 2.04153 11.9996C2.04153 6.486 6.52782 1.9997 12.0416 1.9997ZM12.0416 -0.000434875C5.41451 -0.000434875 0.0415344 5.37259 0.0415344 11.9996C0.0415344 18.6268 5.41451 23.9997 12.0416 23.9997C18.6686 23.9997 24.0416 18.6268 24.0416 11.9996C24.0416 5.37259 18.6686 -0.000434875 12.0416 -0.000434875ZM12.9999 10.9998H16.9999V12.9999H12.9999V16.9998H10.9999V12.9999H6.99985V10.9998H10.9999V6.99976H12.9999V10.9998Z" fill="#9099B7"/>
</svg>
