<svg width="24" height="24" viewBox="0 0 24 24" fill="none" xmlns="http://www.w3.org/2000/svg">
<path fill-rule="evenodd" clip-rule="evenodd" d="M12.0547 2.00004L12.1719 2.63098C12.3749 3.70202 13.2207 4.69531 14.2441 5.07703L15.2881 5.51374C15.6963 5.70295 16.165 5.8037 16.6483 5.8037C17.3241 5.8037 17.9805 5.6095 18.4971 5.25588L19.0341 4.88873L19.1112 4.9657L18.7285 5.52434C18.1162 6.42564 18.0126 7.72462 18.4657 8.71769L18.8847 9.73728C19.2637 10.7694 20.2598 11.62 21.3378 11.8212L22 11.9453V12.0547L21.3388 12.1787C20.2598 12.3798 19.2637 13.2306 18.8838 14.2636L18.4657 15.2832C18.0126 16.2753 18.1162 17.5742 18.7323 18.4814L19.1112 19.0342L19.0341 19.1112L18.498 18.745C17.9813 18.3915 17.3252 18.1962 16.6475 18.1962C16.1641 18.1962 15.6963 18.2969 15.287 18.4863L14.2432 18.9228C13.2207 19.3047 12.3749 20.298 12.1708 21.3759L12.0547 22.0001H11.9453L11.829 21.3809C11.6259 20.3057 10.7772 19.3114 9.74791 18.9325L8.6874 18.4941C8.28024 18.3066 7.81541 18.2079 7.33493 18.2079C6.66101 18.2079 6.0059 18.4013 5.48237 18.7566L4.96582 19.1112L4.88866 19.0342L5.247 18.5106C5.86519 17.6056 5.96774 16.3046 5.50774 15.3095L5.07415 14.2529C4.69339 13.2216 3.69526 12.371 2.61907 12.1708L1.99999 12.0547V11.9453L2.61715 11.8292C3.69526 11.6289 4.69339 10.7783 5.07415 9.74695L5.5087 8.68843C5.9658 7.69433 5.8643 6.39535 5.24604 5.48837L4.88866 4.9657L4.96582 4.88873L5.48921 5.24803C6.0059 5.59855 6.66101 5.79199 7.33493 5.79199C7.81541 5.79199 8.28024 5.69328 8.6874 5.50577L9.74791 5.06736C10.7772 4.68859 11.6259 3.69427 11.8301 2.61514L11.9453 2.00004H12.0547ZM12.9804 0H11.0194C10.6161 0 10.2256 0.325272 10.1493 0.722688L9.86426 2.24719C9.78905 2.64439 9.41402 3.07313 9.03125 3.20009L7.87596 3.67685C7.72171 3.75382 7.53026 3.79195 7.33493 3.79195C7.07316 3.79195 6.80566 3.72456 6.61325 3.59376L5.33107 2.71488C5.18851 2.61708 5.01552 2.57018 4.84073 2.57018C4.60634 2.57018 4.37009 2.65625 4.206 2.82029L2.82029 4.206C2.53418 4.49016 2.48722 4.99711 2.71582 5.33114L3.5957 6.61714C3.82222 6.95014 3.86038 7.51946 3.67867 7.87886L3.20602 9.0312C3.07812 9.41407 2.64936 9.78919 2.25096 9.8633L0.722664 10.1494C0.325176 10.2256 0 10.6163 0 11.0194V12.9805C0 13.3837 0.325176 13.7764 0.722664 13.8506L2.25096 14.1366C2.64936 14.2108 3.07812 14.5859 3.20602 14.9689L3.67867 16.121C3.86225 16.4814 3.8231 17.0499 3.5957 17.3828L2.71582 18.6689C2.48722 19.0028 2.53418 19.5098 2.82029 19.7939L4.206 21.1797C4.36906 21.3447 4.60634 21.4297 4.84073 21.4297C5.01552 21.4297 5.18947 21.3828 5.33107 21.2851L6.61325 20.4064C6.80566 20.2754 7.07316 20.2079 7.33493 20.2079C7.53026 20.2079 7.72171 20.2461 7.87596 20.323L9.03125 20.7998C9.41402 20.9269 9.78905 21.3555 9.86426 21.7528L10.1493 23.2772C10.2256 23.6747 10.6161 23.9999 11.0194 23.9999H12.9804C13.3837 23.9999 13.7764 23.6747 13.8505 23.2772L14.1366 21.7421C14.2118 21.3466 14.5859 20.9159 14.9687 20.787L16.1054 20.3124C16.2597 20.2344 16.452 20.1963 16.6475 20.1963C16.9092 20.1963 17.1767 20.2645 17.3671 20.3945L18.6689 21.2851C18.8114 21.3828 18.9853 21.4297 19.1602 21.4297C19.3944 21.4297 19.6308 21.3447 19.7938 21.1797L21.1797 19.7939C21.4668 19.5098 21.5137 19.0028 21.2851 18.6689L20.3827 17.3516C20.1553 17.0166 20.1171 16.4492 20.2968 16.0888L20.7528 14.9773C20.8799 14.5938 21.3085 14.2187 21.706 14.1445L23.2772 13.8506C23.6748 13.7764 24 13.3837 24 12.9805V11.0194C24 10.6163 23.6748 10.2256 23.2772 10.1494L21.706 9.85546C21.3085 9.78122 20.8799 9.40632 20.7528 9.02256L20.2968 7.9121C20.1171 7.55076 20.1553 6.98338 20.3827 6.64843L21.2851 5.33114C21.5137 4.99711 21.4658 4.49016 21.1797 4.206L19.7938 2.82029C19.6308 2.65625 19.3944 2.57018 19.1602 2.57018C18.9853 2.57018 18.8114 2.61811 18.6689 2.71579L17.3681 3.60547C17.1776 3.73538 16.9092 3.80369 16.6483 3.80369C16.452 3.80369 16.2597 3.76543 16.1064 3.68755L14.9687 3.21295C14.5859 3.08395 14.2118 2.65327 14.1366 2.2579L13.8505 0.722688C13.7764 0.325272 13.3837 0 12.9804 0ZM11.9999 17C9.24317 17 6.99994 14.7568 6.99994 12C6.99994 9.24319 9.24317 6.99998 11.9999 6.99998C14.7567 6.99998 17 9.24319 17 12C17 14.7568 14.7567 17 11.9999 17ZM11.9999 9.00002C10.3456 9.00002 8.99993 10.3457 8.99993 12C8.99993 13.6543 10.3456 15 11.9999 15C13.6542 15 15 13.6543 15 12C15 10.3457 13.6542 9.00002 11.9999 9.00002Z" fill="#9099B7"/>
</svg>
