<svg width="27" height="27" viewBox="0 0 27 27" fill="none" xmlns="http://www.w3.org/2000/svg">
<path fill-rule="evenodd" clip-rule="evenodd" d="M25.0405 11.938H23.7678C23.0505 11.938 22.4693 12.403 22.4693 12.9769C22.4693 13.5504 23.0505 14.0157 23.7678 14.0157H25.0405C25.7578 14.0157 26.3391 13.5504 26.3391 12.9769C26.3391 12.403 25.7578 11.938 25.0405 11.938ZM4.23672 12.9769C4.23672 12.403 3.68179 11.938 2.96459 11.938H1.66605C0.948688 11.938 0.367432 12.403 0.367432 12.9769C0.367432 13.5504 0.948688 14.0157 1.66605 14.0157H2.96459C3.68179 14.0157 4.23672 13.5504 4.23672 12.9769ZM12.9941 3.94888C13.5421 3.94888 13.9865 3.3677 13.9865 2.65036V1.35164C13.9865 0.634297 13.5421 0.0532227 12.9941 0.0532227C12.4462 0.0532227 12.0018 0.634297 12.0018 1.35164V2.65036C12.0018 3.3677 12.4462 3.94888 12.9941 3.94888ZM13.0095 22.1292C12.4358 22.1292 11.9707 22.7106 11.9707 23.428V24.7267C11.9707 25.4437 12.4358 26.0251 13.0095 26.0251C13.5832 26.0251 14.0484 25.4437 14.0484 24.7267V23.428C14.0484 22.7106 13.5832 22.1292 13.0095 22.1292ZM22.9182 4.94333C23.4254 4.43672 23.5076 3.6965 23.1017 3.2903C22.696 2.88454 21.9559 2.96743 21.4492 3.47391L20.5401 4.38287C20.0329 4.89016 19.9506 5.63025 20.3565 6.03554C20.7624 6.44173 21.5024 6.35965 22.0092 5.85237C22.1493 5.7127 22.7786 5.08347 22.9182 4.94333ZM4.69685 20.226C4.55691 20.3662 3.92787 20.9956 3.78785 21.135C3.28119 21.6419 3.19898 22.3821 3.60427 22.7875C4.01 23.1936 4.75015 23.1109 5.25697 22.6042C5.39683 22.4646 6.02644 21.8357 6.1659 21.6958C6.6732 21.1887 6.75533 20.4483 6.34952 20.0426C5.94369 19.6365 5.20359 19.7191 4.69685 20.226ZM5.25794 3.47391C4.75064 2.96709 4.01054 2.88454 3.60476 3.2903C3.19898 3.6965 3.2816 4.43615 3.78833 4.94333L4.14063 5.29567C4.3626 5.51772 4.61486 5.77007 4.69739 5.85237C5.20462 6.35921 5.94423 6.44153 6.35009 6.03554C6.75587 5.63025 6.67374 4.89016 6.167 4.38287C6.02693 4.24307 5.3978 3.61395 5.25794 3.47391ZM20.5401 21.6958L21.4497 22.6044C21.9564 23.1112 22.6964 23.1936 23.1023 22.7878C23.5076 22.3821 23.4254 21.642 22.9186 21.1354C22.8195 21.0364 22.475 20.6917 22.2327 20.4493L22.0097 20.2262C21.5029 19.7191 20.7624 19.6366 20.3565 20.0428C19.9506 20.4483 20.0334 21.1887 20.5401 21.6958ZM12.9998 5.99958C16.8659 5.99958 19.9999 9.13338 19.9999 12.9993C19.9999 16.8653 16.8659 19.9996 12.9998 19.9996C9.13387 19.9996 5.99974 16.8653 5.99974 12.9993C5.99974 9.13338 9.13387 5.99958 12.9998 5.99958ZM18.0036 12.9993C18.0036 10.2359 15.7633 7.99562 12.9998 7.99562C10.2364 7.99562 7.99601 10.2359 7.99601 12.9993C7.99601 15.7628 10.2364 18.0032 12.9998 18.0032C15.7633 18.0032 18.0036 15.7628 18.0036 12.9993Z" fill="#9099B7"/>
</svg>
