<svg width="26" height="19" viewBox="0 0 26 19" fill="none" xmlns="http://www.w3.org/2000/svg">
<path fill-rule="evenodd" clip-rule="evenodd" d="M18.5209 5.06133C17.5483 2.01735 15.2494 0.921814 12.1713 0.921814C8.02968 0.921814 4.67134 3.94815 4.67134 8.06638C4.67134 8.08045 4.67234 8.0949 4.67336 8.10954C4.67409 8.12012 4.67483 8.13081 4.6752 8.14151C2.54724 8.49603 0.983765 10.3242 0.983765 12.5408C0.983765 15.0115 2.93602 17.0155 5.42132 17.0155H8.01605L6.6098 15.0155H5.42132C4.04237 15.0155 2.98373 13.905 2.98373 12.5408C2.98373 11.3358 3.79726 10.3153 5.00432 10.114L6.74165 9.95006L6.67325 8.06433L6.67133 8.02415C6.6938 5.034 9.15281 2.92185 12.1713 2.92185C14.4252 2.92185 15.9203 3.49392 16.6157 5.66961L17.0512 7.0321L18.4799 7.06136C20.5815 7.10325 23.0161 8.88162 23.0161 11.0496C23.0161 14.7167 19.4448 15.0155 19.4448 15.0155L17.8285 17.0155H20.1098V16.9636C23.1097 16.5955 25.0473 14.0906 25.0473 11.0496C25.0473 7.79565 21.7768 5.12781 18.5209 5.06133ZM14 11.246L16.1996 13.6718C16.4789 13.9638 16.9311 13.9638 17.2104 13.6718L17.4623 13.5956C17.7416 13.3027 17.7416 12.83 17.4623 12.538L13.7611 8.4834C13.759 8.48073 13.7574 8.4781 13.7559 8.47558L13.7559 8.47557C13.754 8.47238 13.7522 8.46938 13.7495 8.46677L13.4965 8.20208C13.3579 8.05567 13.1732 7.98328 12.9897 7.98419C12.8051 7.98328 12.6215 8.05567 12.4808 8.20208L12.2279 8.46677C12.2254 8.46915 12.224 8.47211 12.2225 8.4751C12.2211 8.478 12.2196 8.48093 12.2172 8.4834L8.60784 12.4755C8.32858 12.7675 8.32858 13.2402 8.60784 13.5331L8.85987 13.6093C9.13906 13.9013 9.5922 13.9013 9.87154 13.6093L12 11.2356V17.9998C12 18.5522 12.4477 18.9999 13 18.9999C13.5522 18.9999 14 18.5522 14 17.9998V11.246Z" fill="#9099B7"/>
</svg>
