<svg width="300" height="198" viewBox="0 0 300 198" fill="none" xmlns="http://www.w3.org/2000/svg">
<path fill-rule="evenodd" clip-rule="evenodd" d="M3.9999 -0.000396H296C298.209 -0.000396 300 1.79051 300 3.9998V198H-0.0003V3.9998C-0.0003 1.79051 1.7907 -0.000396 3.9999 -0.000396Z" fill="#11A8AB"/>
<path fill-rule="evenodd" clip-rule="evenodd" d="M275 48H43V49H275V48ZM275 83.9999H43V84.9999H275V83.9999ZM43 120H275V121H43V120ZM275 156H43V157H275V156Z" fill="black" fill-opacity="0.07"/>
<path fill-rule="evenodd" clip-rule="evenodd" d="M44.501 140.103C44.1338 140.103 43.7812 139.901 43.6053 139.551C43.3584 139.057 43.5585 138.456 44.0527 138.209L104.658 107.906L122.58 123.836L157.326 100.01L174.135 104.954L192.838 81.3279L193.01 81.2322L209.606 71.8964L237.938 95.1688L274.685 102.121C275.229 102.223 275.585 102.747 275.482 103.289C275.38 103.832 274.857 104.187 274.314 104.086L237.062 97.0378L209.393 74.3104L194.162 82.8787L174.865 107.253L157.674 102.197L122.42 126.371L104.342 110.301L44.9472 139.998C44.8037 140.069 44.6513 140.103 44.501 140.103Z" fill="white"/>
<path d="M213.004 74.5017C213.004 72.5678 211.436 70.9998 209.502 70.9998C207.568 70.9998 206 72.5678 206 74.5017C206 76.4357 207.568 78.0039 209.502 78.0039C211.436 78.0039 213.004 76.4357 213.004 74.5017Z" fill="#11A8AB" stroke="white" stroke-width="2"/>
<path d="M82.672 180C82.52 179.592 82.376 179.2 82.24 178.824C82.104 178.448 81.972 178.08 81.844 177.72H77.8C77.664 178.08 77.528 178.448 77.392 178.824C77.256 179.2 77.116 179.592 76.972 180H76.12C76.44 179.136 76.74 178.332 77.02 177.588C77.3 176.836 77.572 176.128 77.836 175.464C78.108 174.792 78.376 174.148 78.64 173.532C78.904 172.916 79.184 172.3 79.48 171.684H80.2C80.496 172.3 80.776 172.916 81.04 173.532C81.304 174.148 81.568 174.792 81.832 175.464C82.104 176.128 82.38 176.836 82.66 177.588C82.94 178.332 83.244 179.136 83.572 180H82.672ZM79.816 172.62C79.512 173.308 79.216 174.008 78.928 174.72C78.648 175.432 78.356 176.2 78.052 177.024H81.592C81.288 176.2 80.992 175.432 80.704 174.72C80.416 174.008 80.12 173.308 79.816 172.62ZM85.4995 178.884C85.5715 178.94 85.6595 179 85.7635 179.064C85.8755 179.128 86.0035 179.188 86.1475 179.244C86.2915 179.3 86.4475 179.348 86.6155 179.388C86.7835 179.42 86.9595 179.436 87.1435 179.436C87.5275 179.436 87.8475 179.372 88.1035 179.244C88.3675 179.108 88.5795 178.928 88.7395 178.704C88.8995 178.472 89.0155 178.204 89.0875 177.9C89.1595 177.588 89.1955 177.26 89.1955 176.916C89.1955 176.1 88.9915 175.476 88.5835 175.044C88.1755 174.604 87.6355 174.384 86.9635 174.384C86.5795 174.384 86.2675 174.404 86.0275 174.444C85.7955 174.476 85.6195 174.512 85.4995 174.552V178.884ZM85.4995 182.22H84.7195V174.012C84.9515 173.932 85.2475 173.856 85.6075 173.784C85.9675 173.712 86.4235 173.676 86.9755 173.676C87.4315 173.676 87.8435 173.752 88.2115 173.904C88.5875 174.048 88.9075 174.26 89.1715 174.54C89.4435 174.82 89.6515 175.16 89.7955 175.56C89.9475 175.96 90.0235 176.412 90.0235 176.916C90.0235 177.388 89.9595 177.824 89.8315 178.224C89.7115 178.616 89.5315 178.956 89.2915 179.244C89.0515 179.524 88.7555 179.744 88.4035 179.904C88.0595 180.064 87.6635 180.144 87.2155 180.144C86.8075 180.144 86.4515 180.088 86.1475 179.976C85.8515 179.856 85.6355 179.744 85.4995 179.64V182.22ZM93.8276 173.676C94.0836 173.676 94.3236 173.696 94.5476 173.736C94.7796 173.776 94.9396 173.816 95.0276 173.856L94.8716 174.528C94.8076 174.496 94.6756 174.464 94.4756 174.432C94.2836 174.392 94.0276 174.372 93.7076 174.372C93.3716 174.372 93.0996 174.396 92.8916 174.444C92.6916 174.492 92.5596 174.532 92.4956 174.564V180H91.7156V174.084C91.9156 173.996 92.1916 173.908 92.5436 173.82C92.8956 173.724 93.3236 173.676 93.8276 173.676ZM149.132 178.8C149.052 178.6 148.936 178.336 148.784 178.008C148.64 177.68 148.476 177.324 148.292 176.94C148.108 176.548 147.92 176.148 147.728 175.74C147.536 175.324 147.352 174.936 147.176 174.576C147 174.216 146.844 173.9 146.708 173.628C146.572 173.356 146.472 173.164 146.408 173.052C146.304 174.052 146.22 175.14 146.156 176.316C146.1 177.484 146.048 178.712 146 180H145.196C145.268 178.488 145.348 177.04 145.436 175.656C145.532 174.272 145.648 172.948 145.784 171.684H146.504C146.744 172.084 147 172.548 147.272 173.076C147.544 173.596 147.812 174.14 148.076 174.708C148.348 175.268 148.608 175.824 148.856 176.376C149.112 176.92 149.336 177.412 149.528 177.852C149.72 177.412 149.94 176.92 150.188 176.376C150.444 175.824 150.704 175.268 150.968 174.708C151.24 174.14 151.512 173.596 151.784 173.076C152.056 172.548 152.312 172.084 152.552 171.684H153.236C153.372 172.948 153.484 174.272 153.572 175.656C153.668 177.04 153.752 178.488 153.824 180H152.996C152.948 178.712 152.892 177.484 152.828 176.316C152.772 175.14 152.692 174.052 152.588 173.052C152.524 173.164 152.424 173.356 152.288 173.628C152.152 173.9 151.996 174.216 151.82 174.576C151.644 174.936 151.46 175.324 151.268 175.74C151.076 176.148 150.888 176.548 150.704 176.94C150.52 177.324 150.352 177.68 150.2 178.008C150.056 178.336 149.944 178.6 149.864 178.8H149.132ZM157.691 179.436C157.995 179.436 158.259 179.428 158.483 179.412C158.715 179.388 158.911 179.36 159.071 179.328V177.144C158.983 177.104 158.843 177.064 158.651 177.024C158.459 176.976 158.195 176.952 157.859 176.952C157.667 176.952 157.467 176.968 157.259 177C157.051 177.024 156.859 177.084 156.683 177.18C156.507 177.268 156.363 177.392 156.251 177.552C156.139 177.712 156.083 177.924 156.083 178.188C156.083 178.42 156.119 178.616 156.191 178.776C156.271 178.936 156.379 179.064 156.515 179.16C156.659 179.256 156.827 179.328 157.019 179.376C157.219 179.416 157.443 179.436 157.691 179.436ZM157.619 173.652C158.027 173.652 158.371 173.712 158.651 173.832C158.939 173.944 159.171 174.104 159.347 174.312C159.523 174.512 159.651 174.752 159.731 175.032C159.811 175.312 159.851 175.616 159.851 175.944V179.856C159.771 179.88 159.655 179.908 159.503 179.94C159.351 179.964 159.175 179.992 158.975 180.024C158.775 180.056 158.551 180.08 158.303 180.096C158.063 180.12 157.815 180.132 157.559 180.132C157.231 180.132 156.927 180.096 156.647 180.024C156.375 179.952 156.135 179.84 155.927 179.688C155.727 179.528 155.567 179.328 155.447 179.088C155.335 178.84 155.279 178.54 155.279 178.188C155.279 177.852 155.343 177.564 155.471 177.324C155.599 177.084 155.779 176.888 156.011 176.736C156.243 176.576 156.519 176.46 156.839 176.388C157.159 176.316 157.507 176.28 157.883 176.28C157.995 176.28 158.111 176.288 158.231 176.304C158.359 176.312 158.479 176.328 158.591 176.352C158.711 176.368 158.811 176.388 158.891 176.412C158.979 176.428 159.039 176.444 159.071 176.46V176.076C159.071 175.86 159.055 175.652 159.023 175.452C158.991 175.244 158.919 175.06 158.807 174.9C158.703 174.732 158.551 174.6 158.351 174.504C158.159 174.4 157.903 174.348 157.583 174.348C157.127 174.348 156.787 174.38 156.563 174.444C156.339 174.508 156.175 174.56 156.071 174.6L155.963 173.916C156.099 173.852 156.307 173.792 156.587 173.736C156.875 173.68 157.219 173.652 157.619 173.652ZM163.533 180.132C163.269 179.644 163.013 179.136 162.765 178.608C162.525 178.08 162.297 177.548 162.081 177.012C161.873 176.468 161.681 175.928 161.505 175.392C161.329 174.848 161.177 174.316 161.049 173.796H161.877C161.965 174.18 162.077 174.596 162.213 175.044C162.349 175.484 162.501 175.94 162.669 176.412C162.845 176.884 163.037 177.368 163.245 177.864C163.453 178.36 163.677 178.848 163.917 179.328C164.093 178.832 164.249 178.364 164.385 177.924C164.521 177.484 164.645 177.048 164.757 176.616C164.877 176.176 164.989 175.728 165.093 175.272C165.205 174.816 165.321 174.324 165.441 173.796H166.221C165.965 174.956 165.673 176.084 165.345 177.18C165.017 178.276 164.661 179.28 164.277 180.192C164.125 180.552 163.969 180.86 163.809 181.116C163.649 181.38 163.469 181.596 163.269 181.764C163.077 181.932 162.849 182.056 162.585 182.136C162.329 182.216 162.025 182.256 161.673 182.256C161.473 182.256 161.289 182.232 161.121 182.184C160.961 182.136 160.861 182.1 160.821 182.076L160.977 181.428C161.009 181.452 161.097 181.484 161.241 181.524C161.393 181.572 161.549 181.596 161.709 181.596C161.933 181.596 162.133 181.572 162.309 181.524C162.493 181.476 162.657 181.392 162.801 181.272C162.945 181.16 163.073 181.012 163.185 180.828C163.305 180.644 163.421 180.412 163.533 180.132ZM217.71 177.384C217.71 177.784 217.67 178.156 217.59 178.5C217.51 178.836 217.37 179.132 217.17 179.388C216.978 179.636 216.718 179.832 216.39 179.976C216.07 180.112 215.666 180.18 215.178 180.18C214.89 180.18 214.626 180.152 214.386 180.096C214.146 180.048 213.934 179.988 213.75 179.916C213.566 179.844 213.41 179.768 213.282 179.688C213.162 179.608 213.07 179.536 213.006 179.472L213.39 178.812C213.462 178.876 213.55 178.948 213.654 179.028C213.766 179.1 213.894 179.168 214.038 179.232C214.182 179.296 214.342 179.348 214.518 179.388C214.694 179.428 214.886 179.448 215.094 179.448C215.71 179.448 216.162 179.288 216.45 178.968C216.746 178.64 216.894 178.084 216.894 177.3V171.684H217.71V177.384ZM224.554 179.784C224.322 179.848 224.01 179.92 223.618 180C223.226 180.08 222.746 180.12 222.178 180.12C221.714 180.12 221.326 180.052 221.014 179.916C220.702 179.78 220.45 179.588 220.258 179.34C220.066 179.092 219.926 178.792 219.838 178.44C219.758 178.088 219.718 177.7 219.718 177.276V173.796H220.498V177.024C220.498 177.464 220.53 177.836 220.594 178.14C220.658 178.444 220.762 178.692 220.906 178.884C221.05 179.068 221.234 179.204 221.458 179.292C221.69 179.372 221.97 179.412 222.298 179.412C222.666 179.412 222.986 179.392 223.258 179.352C223.53 179.312 223.702 179.276 223.774 179.244V173.796H224.554V179.784ZM226.622 174.012C226.854 173.948 227.166 173.876 227.558 173.796C227.95 173.716 228.43 173.676 228.998 173.676C229.47 173.676 229.862 173.744 230.174 173.88C230.494 174.016 230.746 174.212 230.93 174.468C231.122 174.716 231.258 175.016 231.338 175.368C231.418 175.72 231.458 176.108 231.458 176.532V180H230.678V176.784C230.678 176.344 230.646 175.972 230.582 175.668C230.526 175.364 230.426 175.116 230.282 174.924C230.146 174.732 229.962 174.596 229.73 174.516C229.506 174.428 229.222 174.384 228.878 174.384C228.51 174.384 228.19 174.404 227.918 174.444C227.654 174.484 227.482 174.52 227.402 174.552V180H226.622V174.012Z" fill="white"/>
<path d="M25.2731 42.46C26.0331 42.46 26.5771 42.304 26.9051 41.992C27.2331 41.672 27.3971 41.244 27.3971 40.708C27.3971 40.356 27.3291 40.064 27.1931 39.832C27.0651 39.6 26.8851 39.416 26.6531 39.28C26.4291 39.136 26.1651 39.036 25.8611 38.98C25.5651 38.916 25.2491 38.884 24.9131 38.884H24.7931V38.236H25.0691C25.2851 38.236 25.5051 38.216 25.7291 38.176C25.9611 38.128 26.1691 38.044 26.3531 37.924C26.5451 37.804 26.7011 37.644 26.8211 37.444C26.9491 37.244 27.0131 36.988 27.0131 36.676C27.0131 36.412 26.9691 36.188 26.8811 36.004C26.7931 35.812 26.6731 35.66 26.5211 35.548C26.3771 35.436 26.2051 35.356 26.0051 35.308C25.8131 35.252 25.6091 35.224 25.3931 35.224C24.9611 35.224 24.6251 35.284 24.3851 35.404C24.1451 35.524 23.9491 35.636 23.7971 35.74L23.4611 35.128C23.5411 35.072 23.6411 35.008 23.7611 34.936C23.8891 34.864 24.0371 34.796 24.2051 34.732C24.3731 34.668 24.5571 34.616 24.7571 34.576C24.9651 34.528 25.1891 34.504 25.4291 34.504C25.8451 34.504 26.2011 34.556 26.4971 34.66C26.8011 34.764 27.0531 34.912 27.2531 35.104C27.4531 35.288 27.6011 35.512 27.6971 35.776C27.7931 36.032 27.8411 36.312 27.8411 36.616C27.8411 37.104 27.7091 37.504 27.4451 37.816C27.1891 38.12 26.8571 38.34 26.4491 38.476C26.6731 38.532 26.8891 38.62 27.0971 38.74C27.3131 38.852 27.5051 39 27.6731 39.184C27.8411 39.36 27.9771 39.576 28.0811 39.832C28.1851 40.088 28.2371 40.388 28.2371 40.732C28.2371 41.084 28.1731 41.408 28.0451 41.704C27.9251 42 27.7411 42.26 27.4931 42.484C27.2531 42.7 26.9451 42.872 26.5691 43C26.1931 43.12 25.7531 43.18 25.2491 43.18C24.9851 43.18 24.7411 43.16 24.5171 43.12C24.3011 43.088 24.1091 43.048 23.9411 43C23.7731 42.952 23.6291 42.904 23.5091 42.856C23.3971 42.808 23.3131 42.768 23.2571 42.736L23.4611 42.04C23.5091 42.072 23.5891 42.112 23.7011 42.16C23.8131 42.208 23.9451 42.256 24.0971 42.304C24.2571 42.344 24.4331 42.38 24.6251 42.412C24.8251 42.444 25.0411 42.46 25.2731 42.46ZM29.9346 38.848C29.9346 37.44 30.1666 36.364 30.6306 35.62C31.0946 34.876 31.7546 34.504 32.6106 34.504C33.4586 34.504 34.1146 34.876 34.5786 35.62C35.0506 36.364 35.2866 37.44 35.2866 38.848C35.2866 40.248 35.0506 41.32 34.5786 42.064C34.1146 42.808 33.4586 43.18 32.6106 43.18C31.7626 43.18 31.1026 42.808 30.6306 42.064C30.1666 41.32 29.9346 40.248 29.9346 38.848ZM34.4346 38.848C34.4346 38.368 34.4026 37.912 34.3386 37.48C34.2826 37.04 34.1826 36.652 34.0386 36.316C33.8946 35.98 33.7066 35.712 33.4746 35.512C33.2426 35.312 32.9546 35.212 32.6106 35.212C32.2586 35.212 31.9666 35.312 31.7346 35.512C31.5026 35.712 31.3146 35.98 31.1706 36.316C31.0346 36.652 30.9346 37.04 30.8706 37.48C30.8146 37.912 30.7866 38.368 30.7866 38.848C30.7866 39.328 30.8146 39.788 30.8706 40.228C30.9346 40.66 31.0346 41.044 31.1706 41.38C31.3146 41.708 31.5026 41.972 31.7346 42.172C31.9666 42.372 32.2586 42.472 32.6106 42.472C32.9546 42.472 33.2426 42.372 33.4746 42.172C33.7066 41.972 33.8946 41.708 34.0386 41.38C34.1826 41.044 34.2826 40.66 34.3386 40.228C34.4026 39.788 34.4346 39.328 34.4346 38.848ZM27.9251 74.748C27.9251 75.06 27.8691 75.356 27.7571 75.636C27.6451 75.908 27.4931 76.172 27.3011 76.428C27.1171 76.684 26.9051 76.932 26.6651 77.172C26.4251 77.412 26.1811 77.652 25.9331 77.892C25.7251 78.092 25.5211 78.296 25.3211 78.504C25.1291 78.704 24.9531 78.908 24.7931 79.116C24.6411 79.316 24.5171 79.516 24.4211 79.716C24.3331 79.908 24.2891 80.1 24.2891 80.292V80.316H28.2131V81H23.4251C23.4251 80.984 23.4211 80.956 23.4131 80.916C23.4131 80.868 23.4131 80.8 23.4131 80.712C23.4131 80.336 23.4811 79.988 23.6171 79.668C23.7531 79.34 23.9251 79.032 24.1331 78.744C24.3491 78.456 24.5851 78.188 24.8411 77.94C25.1051 77.692 25.3571 77.452 25.5971 77.22C25.7971 77.028 25.9851 76.844 26.1611 76.668C26.3451 76.484 26.5051 76.296 26.6411 76.104C26.7771 75.912 26.8851 75.708 26.9651 75.492C27.0451 75.276 27.0851 75.04 27.0851 74.784C27.0851 74.224 26.9331 73.824 26.6291 73.584C26.3331 73.336 25.9571 73.212 25.5011 73.212C25.2451 73.212 25.0171 73.244 24.8171 73.308C24.6171 73.372 24.4411 73.448 24.2891 73.536C24.1451 73.616 24.0211 73.7 23.9171 73.788C23.8131 73.876 23.7371 73.944 23.6891 73.992L23.2811 73.452C23.3291 73.396 23.4131 73.316 23.5331 73.212C23.6611 73.1 23.8171 72.992 24.0011 72.888C24.1931 72.784 24.4131 72.696 24.6611 72.624C24.9091 72.544 25.1851 72.504 25.4891 72.504C26.2971 72.504 26.9051 72.704 27.3131 73.104C27.7211 73.496 27.9251 74.044 27.9251 74.748ZM29.9346 76.848C29.9346 75.44 30.1666 74.364 30.6306 73.62C31.0946 72.876 31.7546 72.504 32.6106 72.504C33.4586 72.504 34.1146 72.876 34.5786 73.62C35.0506 74.364 35.2866 75.44 35.2866 76.848C35.2866 78.248 35.0506 79.32 34.5786 80.064C34.1146 80.808 33.4586 81.18 32.6106 81.18C31.7626 81.18 31.1026 80.808 30.6306 80.064C30.1666 79.32 29.9346 78.248 29.9346 76.848ZM34.4346 76.848C34.4346 76.368 34.4026 75.912 34.3386 75.48C34.2826 75.04 34.1826 74.652 34.0386 74.316C33.8946 73.98 33.7066 73.712 33.4746 73.512C33.2426 73.312 32.9546 73.212 32.6106 73.212C32.2586 73.212 31.9666 73.312 31.7346 73.512C31.5026 73.712 31.3146 73.98 31.1706 74.316C31.0346 74.652 30.9346 75.04 30.8706 75.48C30.8146 75.912 30.7866 76.368 30.7866 76.848C30.7866 77.328 30.8146 77.788 30.8706 78.228C30.9346 78.66 31.0346 79.044 31.1706 79.38C31.3146 79.708 31.5026 79.972 31.7346 80.172C31.9666 80.372 32.2586 80.472 32.6106 80.472C32.9546 80.472 33.2426 80.372 33.4746 80.172C33.7066 79.972 33.8946 79.708 34.0386 79.38C34.1826 79.044 34.2826 78.66 34.3386 78.228C34.4026 77.788 34.4346 77.328 34.4346 76.848ZM23.7371 112.388C24.2171 112.22 24.6451 112.008 25.0211 111.752C25.3971 111.488 25.7691 111.132 26.1371 110.684H26.6891V119H25.9091V111.872C25.8211 111.968 25.7051 112.068 25.5611 112.172C25.4251 112.276 25.2691 112.38 25.0931 112.484C24.9171 112.58 24.7331 112.676 24.5411 112.772C24.3491 112.86 24.1571 112.932 23.9651 112.988L23.7371 112.388ZM29.9346 114.848C29.9346 113.44 30.1666 112.364 30.6306 111.62C31.0946 110.876 31.7546 110.504 32.6106 110.504C33.4586 110.504 34.1146 110.876 34.5786 111.62C35.0506 112.364 35.2866 113.44 35.2866 114.848C35.2866 116.248 35.0506 117.32 34.5786 118.064C34.1146 118.808 33.4586 119.18 32.6106 119.18C31.7626 119.18 31.1026 118.808 30.6306 118.064C30.1666 117.32 29.9346 116.248 29.9346 114.848ZM34.4346 114.848C34.4346 114.368 34.4026 113.912 34.3386 113.48C34.2826 113.04 34.1826 112.652 34.0386 112.316C33.8946 111.98 33.7066 111.712 33.4746 111.512C33.2426 111.312 32.9546 111.212 32.6106 111.212C32.2586 111.212 31.9666 111.312 31.7346 111.512C31.5026 111.712 31.3146 111.98 31.1706 112.316C31.0346 112.652 30.9346 113.04 30.8706 113.48C30.8146 113.912 30.7866 114.368 30.7866 114.848C30.7866 115.328 30.8146 115.788 30.8706 116.228C30.9346 116.66 31.0346 117.044 31.1706 117.38C31.3146 117.708 31.5026 117.972 31.7346 118.172C31.9666 118.372 32.2586 118.472 32.6106 118.472C32.9546 118.472 33.2426 118.372 33.4746 118.172C33.7066 117.972 33.8946 117.708 34.0386 117.38C34.1826 117.044 34.2826 116.66 34.3386 116.228C34.4026 115.788 34.4346 115.328 34.4346 114.848ZM29.9346 152.848C29.9346 151.44 30.1666 150.364 30.6306 149.62C31.0946 148.876 31.7546 148.504 32.6106 148.504C33.4586 148.504 34.1146 148.876 34.5786 149.62C35.0506 150.364 35.2866 151.44 35.2866 152.848C35.2866 154.248 35.0506 155.32 34.5786 156.064C34.1146 156.808 33.4586 157.18 32.6106 157.18C31.7626 157.18 31.1026 156.808 30.6306 156.064C30.1666 155.32 29.9346 154.248 29.9346 152.848ZM34.4346 152.848C34.4346 152.368 34.4026 151.912 34.3386 151.48C34.2826 151.04 34.1826 150.652 34.0386 150.316C33.8946 149.98 33.7066 149.712 33.4746 149.512C33.2426 149.312 32.9546 149.212 32.6106 149.212C32.2586 149.212 31.9666 149.312 31.7346 149.512C31.5026 149.712 31.3146 149.98 31.1706 150.316C31.0346 150.652 30.9346 151.04 30.8706 151.48C30.8146 151.912 30.7866 152.368 30.7866 152.848C30.7866 153.328 30.8146 153.788 30.8706 154.228C30.9346 154.66 31.0346 155.044 31.1706 155.38C31.3146 155.708 31.5026 155.972 31.7346 156.172C31.9666 156.372 32.2586 156.472 32.6106 156.472C32.9546 156.472 33.2426 156.372 33.4746 156.172C33.7066 155.972 33.8946 155.708 34.0386 155.38C34.1826 155.044 34.2826 154.66 34.3386 154.228C34.4026 153.788 34.4346 153.328 34.4346 152.848Z" fill="white"/>
<g clip-path="url(#clip0_244_13)">
<path fill-rule="evenodd" clip-rule="evenodd" d="M213 58.9999H229C231.209 58.9999 233 57.2092 233 55V37.9999C233 35.7909 231.209 34 229 34H189C186.791 34 185 35.7909 185 37.9999V55C185 57.2092 186.791 58.9999 189 58.9999H205L209 65.9998L213 58.9999Z" fill="#50597B"/>
<path d="M192.686 48.946H195.024V46.356H196.928V48.946H199.266V50.696H196.928V53.286H195.024V50.696H192.686V48.946Z" fill="#E64C65"/>
<path d="M209.763 46.776C209.763 47.112 209.693 47.4387 209.553 47.756C209.422 48.064 209.245 48.372 209.021 48.68C208.797 48.9787 208.545 49.2773 208.265 49.576C207.985 49.8653 207.705 50.15 207.425 50.43C207.266 50.5887 207.079 50.7753 206.865 50.99C206.659 51.2047 206.463 51.4287 206.277 51.662C206.09 51.8953 205.931 52.1193 205.801 52.334C205.679 52.5487 205.619 52.7353 205.619 52.894H210.085V54H204.205C204.195 53.944 204.191 53.888 204.191 53.832C204.191 53.776 204.191 53.7247 204.191 53.678C204.191 53.2393 204.261 52.8333 204.401 52.46C204.55 52.0773 204.741 51.718 204.975 51.382C205.208 51.046 205.469 50.7287 205.759 50.43C206.048 50.1313 206.333 49.842 206.613 49.562C206.846 49.338 207.065 49.1187 207.271 48.904C207.485 48.68 207.672 48.4607 207.831 48.246C207.999 48.022 208.129 47.7933 208.223 47.56C208.325 47.3267 208.377 47.0793 208.377 46.818C208.377 46.538 208.33 46.3 208.237 46.104C208.153 45.908 208.036 45.7447 207.887 45.614C207.737 45.4833 207.56 45.39 207.355 45.334C207.159 45.2687 206.949 45.236 206.725 45.236C206.454 45.236 206.207 45.2733 205.983 45.348C205.759 45.4227 205.558 45.5113 205.381 45.614C205.203 45.7073 205.054 45.81 204.933 45.922C204.811 46.0247 204.718 46.104 204.653 46.16L204.009 45.236C204.093 45.1427 204.219 45.0307 204.387 44.9C204.555 44.76 204.755 44.6293 204.989 44.508C205.222 44.3867 205.483 44.284 205.773 44.2C206.062 44.116 206.375 44.074 206.711 44.074C207.728 44.074 208.489 44.312 208.993 44.788C209.506 45.2547 209.763 45.9173 209.763 46.776ZM218.253 51.48C218.253 51.872 218.183 52.236 218.043 52.572C217.912 52.8987 217.712 53.188 217.441 53.44C217.18 53.6827 216.848 53.8693 216.447 54C216.046 54.14 215.584 54.21 215.061 54.21C214.454 54.21 213.946 54.126 213.535 53.958C213.134 53.7807 212.812 53.5613 212.569 53.3C212.326 53.0387 212.154 52.754 212.051 52.446C211.948 52.1287 211.897 51.83 211.897 51.55C211.897 51.2793 211.939 51.0227 212.023 50.78C212.116 50.528 212.233 50.2947 212.373 50.08C212.522 49.8653 212.69 49.674 212.877 49.506C213.073 49.3287 213.278 49.1747 213.493 49.044C212.578 48.5213 212.121 47.7513 212.121 46.734C212.121 46.3793 212.191 46.0433 212.331 45.726C212.471 45.3993 212.667 45.1147 212.919 44.872C213.18 44.6293 213.493 44.438 213.857 44.298C214.221 44.1487 214.627 44.074 215.075 44.074C215.598 44.074 216.046 44.1533 216.419 44.312C216.792 44.4707 217.096 44.676 217.329 44.928C217.572 45.1707 217.744 45.4413 217.847 45.74C217.959 46.0387 218.015 46.328 218.015 46.608C218.015 46.8787 217.973 47.1353 217.889 47.378C217.814 47.6113 217.707 47.8307 217.567 48.036C217.436 48.2413 217.282 48.4233 217.105 48.582C216.937 48.7407 216.76 48.8807 216.573 49.002C217.674 49.5247 218.234 50.3507 218.253 51.48ZM213.213 51.564C213.213 51.732 213.241 51.9093 213.297 52.096C213.362 52.2733 213.47 52.4413 213.619 52.6C213.768 52.7493 213.96 52.8753 214.193 52.978C214.426 53.0807 214.72 53.132 215.075 53.132C215.392 53.132 215.668 53.0853 215.901 52.992C216.144 52.8987 216.34 52.782 216.489 52.642C216.638 52.4927 216.75 52.3247 216.825 52.138C216.9 51.9513 216.937 51.76 216.937 51.564C216.937 51.2653 216.881 51.004 216.769 50.78C216.657 50.556 216.494 50.36 216.279 50.192C216.074 50.024 215.822 49.884 215.523 49.772C215.234 49.6507 214.902 49.548 214.529 49.464C214.109 49.6973 213.782 49.9867 213.549 50.332C213.325 50.6773 213.213 51.088 213.213 51.564ZM216.713 46.594C216.713 46.454 216.68 46.3 216.615 46.132C216.559 45.964 216.466 45.81 216.335 45.67C216.204 45.5207 216.036 45.3993 215.831 45.306C215.626 45.2033 215.374 45.152 215.075 45.152C214.776 45.152 214.52 45.1987 214.305 45.292C214.1 45.3853 213.932 45.5067 213.801 45.656C213.67 45.796 213.572 45.9547 213.507 46.132C213.451 46.3 213.423 46.468 213.423 46.636C213.423 46.8413 213.46 47.0467 213.535 47.252C213.61 47.4573 213.726 47.6487 213.885 47.826C214.044 48.0033 214.249 48.162 214.501 48.302C214.762 48.442 215.07 48.554 215.425 48.638C215.817 48.4047 216.13 48.134 216.363 47.826C216.596 47.5087 216.713 47.098 216.713 46.594ZM224.055 46.594C224.055 47.0047 223.999 47.3687 223.887 47.686C223.775 47.994 223.621 48.2553 223.425 48.47C223.229 48.6753 223.005 48.834 222.753 48.946C222.501 49.0487 222.235 49.1 221.955 49.1C221.675 49.1 221.409 49.0487 221.157 48.946C220.905 48.834 220.681 48.6753 220.485 48.47C220.289 48.2553 220.135 47.994 220.023 47.686C219.911 47.3687 219.855 47.0047 219.855 46.594C219.855 46.1833 219.911 45.824 220.023 45.516C220.135 45.1987 220.289 44.9373 220.485 44.732C220.681 44.5173 220.905 44.3587 221.157 44.256C221.409 44.144 221.675 44.088 221.955 44.088C222.235 44.088 222.501 44.144 222.753 44.256C223.005 44.3587 223.229 44.5173 223.425 44.732C223.621 44.9373 223.775 45.1987 223.887 45.516C223.999 45.824 224.055 46.1833 224.055 46.594ZM223.229 46.594C223.229 46.062 223.122 45.6373 222.907 45.32C222.693 44.9933 222.375 44.83 221.955 44.83C221.535 44.83 221.218 44.9933 221.003 45.32C220.789 45.6373 220.681 46.062 220.681 46.594C220.681 47.126 220.789 47.5553 221.003 47.882C221.218 48.1993 221.535 48.358 221.955 48.358C222.375 48.358 222.693 48.1993 222.907 47.882C223.122 47.5553 223.229 47.126 223.229 46.594ZM225.637 51.704C225.637 51.2933 225.693 50.934 225.805 50.626C225.917 50.3087 226.071 50.0473 226.267 49.842C226.463 49.6273 226.687 49.4687 226.939 49.366C227.191 49.254 227.457 49.198 227.737 49.198C228.017 49.198 228.283 49.254 228.535 49.366C228.787 49.4687 229.011 49.6273 229.207 49.842C229.403 50.0473 229.557 50.3087 229.669 50.626C229.781 50.934 229.837 51.2933 229.837 51.704C229.837 52.1147 229.781 52.4787 229.669 52.796C229.557 53.104 229.403 53.3653 229.207 53.58C229.011 53.7853 228.787 53.9393 228.535 54.042C228.283 54.154 228.017 54.21 227.737 54.21C227.457 54.21 227.191 54.154 226.939 54.042C226.687 53.9393 226.463 53.7853 226.267 53.58C226.071 53.3653 225.917 53.104 225.805 52.796C225.693 52.4787 225.637 52.1147 225.637 51.704ZM226.463 51.704C226.463 52.236 226.571 52.6653 226.785 52.992C227 53.3093 227.317 53.468 227.737 53.468C228.157 53.468 228.475 53.3093 228.689 52.992C228.904 52.6653 229.011 52.236 229.011 51.704C229.011 51.172 228.904 50.7473 228.689 50.43C228.475 50.1033 228.157 49.94 227.737 49.94C227.317 49.94 227 50.1033 226.785 50.43C226.571 50.7473 226.463 51.172 226.463 51.704ZM227.149 44.298H228.073L222.543 54H221.619L227.149 44.298Z" fill="white"/>
</g>
<defs>
<clipPath id="clip0_244_13">
<rect width="48" height="32" fill="white" transform="translate(185 34)"/>
</clipPath>
</defs>
</svg>
