<svg width="25" height="24" viewBox="0 0 25 24" fill="none" xmlns="http://www.w3.org/2000/svg">
<path fill-rule="evenodd" clip-rule="evenodd" d="M14.0108 7.96945H13C12.6694 7.96945 12.0135 8.31222 12.0135 8.99975V10.0062H15L14.0108 11.9791H12.0135V18.9998H9.99336V11.9791H8.99988V10.0062H9.99336V9.99976C9.99336 7.57007 10.685 5.99891 13 5.99891H14.0108V7.96945ZM12.0416 1.99977C17.5553 1.99977 22.0416 6.48616 22.0416 11.9998C22.0416 17.5134 17.5553 21.9998 12.0416 21.9998C6.52793 21.9998 2.04156 17.5134 2.04156 11.9998C2.04156 6.48616 6.52793 1.99977 12.0416 1.99977ZM12.0416 -0.000274658C5.41454 -0.000274658 0.0415649 5.37275 0.0415649 11.9998C0.0415649 18.6268 5.41454 23.9998 12.0416 23.9998C18.6686 23.9998 24.0417 18.6268 24.0417 11.9998C24.0417 5.37275 18.6686 -0.000274658 12.0416 -0.000274658Z" fill="white"/>
</svg>
