<svg width="22" height="23" viewBox="0 0 22 23" fill="none" xmlns="http://www.w3.org/2000/svg">
<path fill-rule="evenodd" clip-rule="evenodd" d="M11.7293 12.9204C11.7774 12.9561 11.8227 12.9896 11.8644 13.0208C13.8763 14.5255 14.2556 15.4719 14.284 17.3521C14.3215 19.8518 11.7458 22.0327 7.6191 22.0327C3.99823 22.0327 0.964027 20.3901 0.964027 18.0419C0.964027 14.4974 3.47697 13.3526 7.09777 13.3526C7.29775 13.3526 7.4892 13.35 7.67811 13.3474C7.86205 13.3448 8.04358 13.3423 8.22822 13.3423C7.73268 12.8641 7.33257 12.45 7.33257 11.7248C7.33257 11.2926 7.46947 10.8809 7.66292 10.5135L7.65757 10.5139C7.46324 10.5263 7.2637 10.539 7.05905 10.539C4.08473 10.539 2.35301 8.45612 2.35301 5.84542C2.35301 3.28928 4.98922 0.997803 8.15071 0.997803H14.3821L12.9898 2.42234H11.3536C12.5084 3.08071 13.1213 4.43592 13.1213 5.9331C13.1213 7.30618 12.3587 8.41219 11.2812 9.25066C10.2282 10.0712 10.0296 10.413 10.0296 11.1102C10.0296 11.6612 11.1113 12.4626 11.7293 12.9204ZM7.59352 2.5009C5.99993 2.45468 4.60274 3.90177 4.8795 5.97739C5.15386 8.0554 6.66916 9.44726 8.26384 9.4961C9.85734 9.5422 10.7735 8.26464 10.4992 6.18606C10.2249 4.11065 9.18714 2.54939 7.59352 2.5009ZM3.49675 17.4889C3.49675 19.1448 5.19576 20.4943 7.54753 20.4943C10.8549 20.4943 12.007 19.2303 12.007 17.5725C12.007 17.3724 12.0014 17.1711 11.9319 16.9885C11.1338 15.0019 8.56321 15.0019 7.70635 15.0019C5.40158 15.0019 3.49675 15.865 3.49675 17.4889ZM18.9959 4.99433H21.9939V4.00719H18.9959V0.999966H18.0004V4.00719H15.0064V4.99433H18.0004V8.00712H18.9959V4.99433Z" fill="white"/>
</svg>
