<svg width="25" height="18" viewBox="0 0 25 18" fill="none" xmlns="http://www.w3.org/2000/svg">
<path fill-rule="evenodd" clip-rule="evenodd" d="M21.9557 3.5312C21.7442 2.65376 20.9524 1.99977 20.0111 1.99977H4.0112C3.06996 1.99977 2.27813 2.65376 2.06659 3.53119L12.0111 10.7633L21.9557 3.5312ZM24.0111 3.97622C23.9984 1.77791 22.2123 -0.000244141 20.0111 -0.000244141H4.0112C1.80212 -0.000244141 0.0110931 1.79065 0.0110931 3.99981V13.9998C0.0110931 16.2088 1.80212 17.9998 4.0112 17.9998H20.0111C22.2202 17.9998 24.0112 16.2088 24.0112 13.9998V4.01916C24.0114 4.00486 24.0114 3.99054 24.0111 3.97622ZM22.0112 5.96313L12.599 12.8083C12.4243 12.9363 12.2172 12.9998 12.0111 12.9998C11.8051 12.9998 11.598 12.9363 11.4232 12.8083L2.01113 5.96316V13.9998C2.01113 15.1023 2.90866 15.9996 4.0112 15.9996H20.0111C21.1137 15.9996 22.0112 15.1023 22.0112 13.9998V5.96313Z" fill="white"/>
</svg>
