<svg width="22" height="18" viewBox="0 0 22 18" fill="none" xmlns="http://www.w3.org/2000/svg">
<path fill-rule="evenodd" clip-rule="evenodd" d="M21.1627 2.04722C20.3901 2.38931 19.5597 2.61895 18.6883 2.72356C19.5777 2.19259 20.2607 1.35071 20.5823 0.350466C19.7507 0.841477 18.8281 1.19771 17.8477 1.39146C17.0616 0.556982 15.9423 0.0362549 14.7038 0.0362549C12.3248 0.0362549 10.3962 1.95659 10.3962 4.32605C10.3962 4.66019 10.4341 4.98953 10.5077 5.30352C6.92815 5.1233 3.75408 3.41643 1.6295 0.822692C1.2591 1.45533 1.04636 2.19145 1.04636 2.97744C1.04636 4.46642 1.80684 5.7779 2.96274 6.54739C2.25674 6.52541 1.59229 6.33176 1.01187 6.01016C1.01116 6.02814 1.01116 6.04567 1.01116 6.06491C1.01116 8.14349 2.49638 9.87621 4.46651 10.2701C4.10518 10.3685 3.72456 10.4197 3.33177 10.4197C3.05444 10.4197 2.78401 10.3942 2.52129 10.3433C3.06915 12.0476 4.66004 13.288 6.54489 13.321C5.07067 14.472 3.21332 15.1583 1.1957 15.1583C0.847726 15.1583 0.504922 15.1379 0.167992 15.0969C2.07414 16.3141 4.33838 17.0248 6.77057 17.0248C14.6935 17.0248 19.0254 10.4897 19.0254 4.82252C19.0254 4.63719 19.0215 4.45105 19.0139 4.26742C19.8557 3.66244 20.585 2.9072 21.1627 2.04722Z" fill="white"/>
</svg>
